<svg id="Layer_1" data-name="Layer 1" xmlns="http://www.w3.org/2000/svg" viewBox="0 0 67.84 18.12"><defs><style>.cls-1{fill:#9ffff0;}</style></defs><path id="Path_516" data-name="Path 516" class="cls-1" d="M12.31,14.27a2.78,2.78,0,0,1-.21,1.14,2.51,2.51,0,0,1-.62.89,3,3,0,0,1-1,.56,4.23,4.23,0,0,1-1.32.2,4.17,4.17,0,0,1-1.31-.2,2.77,2.77,0,0,1-1-.56,2.54,2.54,0,0,1-.63-.89A3.16,3.16,0,0,1,6,14.27V9.82l.41-.06a3.15,3.15,0,0,1,.53,0,2,2,0,0,1,.48,0,.85.85,0,0,1,.34.14.75.75,0,0,1,.21.29,1.61,1.61,0,0,1,.07.49v3.55a1.17,1.17,0,0,0,.31.87,1,1,0,0,0,.79.31A1.08,1.08,0,0,0,10,15.1a1.2,1.2,0,0,0,.3-.87V9.82l.41-.06a3.08,3.08,0,0,1,.53,0,2,2,0,0,1,.48,0A.85.85,0,0,1,12,9.9a.66.66,0,0,1,.21.29,1.61,1.61,0,0,1,.07.49Zm7.87,2.36a1,1,0,0,1-.47.25A3.06,3.06,0,0,1,19,17a2.75,2.75,0,0,1-.81-.13,1.13,1.13,0,0,1-.63-.62l-1.15-2.35c-.12-.24-.23-.47-.32-.68s-.19-.46-.3-.74h-.07c0,.42.05.85.05,1.28s0,.86,0,1.28v1.8a1.78,1.78,0,0,1-.39.07,3,3,0,0,1-.52,0,3.4,3.4,0,0,1-.45,0,.75.75,0,0,1-.33-.14.7.7,0,0,1-.19-.29,1.26,1.26,0,0,1-.08-.47V10.18a1,1,0,0,1,.5-.35A2,2,0,0,1,15,9.72a2.51,2.51,0,0,1,.82.13,1.11,1.11,0,0,1,.63.61l1.16,2.35c.12.24.22.47.32.68s.19.46.3.74h.06c0-.42-.05-.84-.06-1.26s0-.84,0-1.26V9.82l.38-.07.52,0a1.34,1.34,0,0,1,.78.18.85.85,0,0,1,.27.75Zm3.54-1.27.31,0,.35,0a2.28,2.28,0,0,0,.73-.12,1.49,1.49,0,0,0,.57-.36,1.62,1.62,0,0,0,.37-.63,3,3,0,0,0,.14-.94,2.26,2.26,0,0,0-.49-1.58,1.72,1.72,0,0,0-1.3-.53l-.33,0c-.12,0-.23,0-.35,0Zm.65,1.7h-.45L23.39,17a4.85,4.85,0,0,1-.55-.09,3.23,3.23,0,0,1-.51-.14.89.89,0,0,1-.64-.85V10.49a.49.49,0,0,1,.14-.38.88.88,0,0,1,.36-.21,4.35,4.35,0,0,1,1.06-.22,9.34,9.34,0,0,1,1-.06,6.13,6.13,0,0,1,1.65.22,3.63,3.63,0,0,1,1.27.68A3.15,3.15,0,0,1,28,11.68a4.45,4.45,0,0,1,.29,1.65A4.31,4.31,0,0,1,28,15a3.1,3.1,0,0,1-.8,1.16,3.4,3.4,0,0,1-1.24.71A5,5,0,0,1,24.37,17.06Zm5.07-6.16a1.09,1.09,0,0,1,.29-.79,1.12,1.12,0,0,1,.8-.29h3.84a1.43,1.43,0,0,1,.14.34,1.3,1.3,0,0,1,.06.44.81.81,0,0,1-.19.63.74.74,0,0,1-.51.19H31.42V12.5H34a1.66,1.66,0,0,1,.15.33,1.61,1.61,0,0,1,.06.44.87.87,0,0,1-.19.62.66.66,0,0,1-.5.19H31.42V15.3h3a1.47,1.47,0,0,1,.15.34,1.61,1.61,0,0,1,.06.44.92.92,0,0,1-.19.64.69.69,0,0,1-.51.19h-3.4a1,1,0,0,1-1.08-1.08Zm8.4,3.69v2.23l-.4.07a4.9,4.9,0,0,1-.54,0,2.49,2.49,0,0,1-.47,0,.74.74,0,0,1-.34-.15.61.61,0,0,1-.2-.29,1.3,1.3,0,0,1-.07-.48V10.48a.51.51,0,0,1,.13-.37.94.94,0,0,1,.37-.22,4.2,4.2,0,0,1,.92-.2,8.32,8.32,0,0,1,1.12-.07,3.73,3.73,0,0,1,2.42.68,2.3,2.3,0,0,1,.82,1.83,2,2,0,0,1-.38,1.23,2.56,2.56,0,0,1-.88.79c.28.38.55.74.82,1.07a6.23,6.23,0,0,1,.64.91,1.07,1.07,0,0,1-.42.62,1.16,1.16,0,0,1-.7.22,1.67,1.67,0,0,1-.44-.06.88.88,0,0,1-.32-.16,1.6,1.6,0,0,1-.26-.26l-.22-.33-1-1.57ZM38.58,13a1.05,1.05,0,0,0,.7-.23.83.83,0,0,0,.25-.67.79.79,0,0,0-.28-.66,1.52,1.52,0,0,0-.9-.23h-.28l-.24,0V13Zm6.33,1c-.34-.12-.65-.23-.93-.35a2.78,2.78,0,0,1-.72-.44,2,2,0,0,1-.48-.61,2,2,0,0,1-.16-.87,1.88,1.88,0,0,1,.76-1.58,3.35,3.35,0,0,1,2.13-.59,4.86,4.86,0,0,1,.93.07,2.63,2.63,0,0,1,.74.21,1.28,1.28,0,0,1,.49.37.9.9,0,0,1,.17.53.85.85,0,0,1-.14.52,1.33,1.33,0,0,1-.34.37,2.41,2.41,0,0,0-.68-.29,3.81,3.81,0,0,0-1-.12,1.44,1.44,0,0,0-.76.15.4.4,0,0,0-.25.36.36.36,0,0,0,.15.29,1.57,1.57,0,0,0,.46.2l.61.19a4.61,4.61,0,0,1,1.68.89,1.88,1.88,0,0,1,.59,1.48,1.94,1.94,0,0,1-.77,1.6,3.73,3.73,0,0,1-2.3.61,5.51,5.51,0,0,1-1-.08,3.33,3.33,0,0,1-.81-.26,1.36,1.36,0,0,1-.53-.42.9.9,0,0,1-.2-.57,1,1,0,0,1,.2-.58,1.36,1.36,0,0,1,.43-.36,3.27,3.27,0,0,0,.8.44,2.73,2.73,0,0,0,1,.19,1.39,1.39,0,0,0,.8-.18.49.49,0,0,0,.23-.41.39.39,0,0,0-.18-.35,2.53,2.53,0,0,0-.53-.24Zm4.41-3.16a1.07,1.07,0,0,1,.29-.8,1.09,1.09,0,0,1,.79-.29h3.84a2.07,2.07,0,0,1,.15.34,1.61,1.61,0,0,1,.06.44.88.88,0,0,1-.19.63.69.69,0,0,1-.51.19H51.3v1.08h2.61a1.09,1.09,0,0,1,.15.33,1.61,1.61,0,0,1,.06.44.85.85,0,0,1-.18.63.72.72,0,0,1-.5.18H51.3v1.22h3a1.43,1.43,0,0,1,.14.34,1.35,1.35,0,0,1,.07.44.88.88,0,0,1-.2.64.67.67,0,0,1-.5.19H50.4a1,1,0,0,1-1.08-1.08Zm8-.88A2.54,2.54,0,0,1,58,9.8a3.08,3.08,0,0,1,.8-.1,2.75,2.75,0,0,1,1,.17.85.85,0,0,1,.58.53c.14.4.29.87.45,1.4s.33,1.09.49,1.66l.48,1.69c.15.55.29,1,.4,1.47a1,1,0,0,1-.42.26,2.07,2.07,0,0,1-.66.1,1.83,1.83,0,0,1-.47-.05.73.73,0,0,1-.31-.14.66.66,0,0,1-.2-.24A2.09,2.09,0,0,1,60,16.2l-.21-.8H57.67q-.09.35-.18.72c-.06.25-.13.49-.19.72l-.34.1a2.18,2.18,0,0,1-.44,0,1.51,1.51,0,0,1-.88-.21.65.65,0,0,1-.28-.56,1.24,1.24,0,0,1,0-.33c0-.1.07-.23.11-.38s.13-.47.23-.78.2-.64.32-1,.24-.73.37-1.11.25-.73.37-1.06.22-.64.32-.9.17-.47.23-.61Zm1.39,1.51c-.11.33-.23.69-.37,1.09s-.26.81-.36,1.22h1.44q-.16-.63-.33-1.23c-.12-.4-.22-.76-.31-1.08Z"/><path class="cls-1" d="M64.48,1.06a7.44,7.44,0,0,0-4.8,1.67,4.41,4.41,0,0,1-2.88,1,4.27,4.27,0,0,1-2.84-1,7.66,7.66,0,0,0-9.55,0,4.49,4.49,0,0,1-2.88,1,4.37,4.37,0,0,1-2.84-1,7.66,7.66,0,0,0-9.55,0,4.35,4.35,0,0,1-2.81,1h-.12a4.38,4.38,0,0,1-2.79-1,7.65,7.65,0,0,0-9.54,0,4.4,4.4,0,0,1-2.82,1h-.12a4.35,4.35,0,0,1-2.78-1,7.52,7.52,0,0,0-4.8-1.67A1.46,1.46,0,0,0,1.93,2.52v.12a1.42,1.42,0,0,0,.43,1,1.45,1.45,0,0,0,1,.42h.08a4.4,4.4,0,0,1,2.78,1A7.43,7.43,0,0,0,11,6.76a7.49,7.49,0,0,0,4.79-1.68,4.33,4.33,0,0,1,2.88-1,4.5,4.5,0,0,1,2.84,1,7.4,7.4,0,0,0,4.75,1.68,7.51,7.51,0,0,0,4.8-1.68,4.42,4.42,0,0,1,2.82-1H34a4.4,4.4,0,0,1,2.78,1,7.34,7.34,0,0,0,4.65,1.68h.21a7.36,7.36,0,0,0,4.69-1.68,4.33,4.33,0,0,1,2.88-1,4.5,4.5,0,0,1,2.84,1,7.36,7.36,0,0,0,4.69,1.68h.17A7.36,7.36,0,0,0,61.6,5.08a4.56,4.56,0,0,1,2.84-1,1.61,1.61,0,0,0,1-.42,1.42,1.42,0,0,0,.43-1V2.52A1.45,1.45,0,0,0,64.48,1.06Z"/></svg>